<?xml version="1.0" standalone="no"?>
<!DOCTYPE svg PUBLIC "-//W3C//DTD SVG 20010904//EN"
 "http://www.w3.org/TR/2001/REC-SVG-20010904/DTD/svg10.dtd">
<svg version="1.0" xmlns="http://www.w3.org/2000/svg"
 width="400.000000pt" height="400.000000pt" viewBox="0 0 400.000000 400.000000"
 preserveAspectRatio="xMidYMid meet">
<metadata>
Created by potrace 1.11, written by Peter Selinger 2001-2013
</metadata>
<g transform="translate(0.000000,400.000000) scale(0.100000,-0.100000)"
fill="#000000" stroke="none">
<path d="M2353 3655 c-13 -13 -47 -26 -84 -33 -71 -13 -76 -16 -60 -36 13 -15
17 -45 26 -170 3 -38 9 -83 13 -100 5 -17 8 -42 6 -56 -1 -14 -3 -46 -5 -72
-1 -27 -6 -48 -10 -48 -4 0 -9 -10 -12 -23 -6 -20 -12 -22 -64 -22 -32 0 -83
-3 -113 -8 -30 -4 -82 -9 -115 -12 -141 -12 -213 -23 -236 -36 -9 -4 -19 -6
-22 -3 -3 3 -34 0 -69 -7 -57 -12 -77 -14 -108 -10 -5 1 -10 9 -10 19 0 10 -3
22 -7 26 -5 4 -9 12 -9 17 -1 5 -3 11 -4 14 -1 3 -3 13 -4 23 -1 9 -5 23 -9
30 -5 6 -6 12 -3 12 3 0 -3 23 -14 50 -11 28 -20 58 -20 66 0 28 -42 114 -56
114 -8 0 -13 3 -13 8 5 32 -37 42 -75 16 -21 -13 -43 -71 -38 -96 1 -5 -1 -8
-6 -8 -4 0 -7 -38 -7 -84 -1 -47 3 -82 7 -80 4 3 8 14 8 25 0 10 4 19 9 19 8
0 5 -147 -4 -195 -2 -11 -4 -23 -4 -27 -1 -11 -35 -27 -72 -33 -19 -3 -57 -12
-86 -19 -37 -10 -54 -11 -62 -3 -6 6 -11 7 -11 1 0 -5 -16 -9 -35 -8 -19 1
-38 -2 -41 -8 -3 -5 -12 -4 -20 3 -12 10 -15 10 -12 -2 2 -9 -5 -14 -19 -13
-13 1 -23 -2 -23 -5 0 -4 -8 -7 -17 -7 -24 -2 -127 -30 -150 -42 -10 -5 -30
-8 -45 -6 -15 1 -31 -2 -34 -8 -5 -7 -1 -9 9 -5 10 3 17 2 17 -3 0 -6 -6 -10
-14 -10 -8 0 -17 -7 -20 -15 -3 -9 -20 -21 -37 -27 -26 -9 -30 -14 -24 -37 4
-14 7 -30 8 -36 1 -5 10 -16 20 -23 9 -7 17 -17 17 -22 0 -11 21 -38 60 -79
25 -26 86 -59 125 -68 11 -2 31 -7 45 -10 37 -8 70 -7 120 2 25 4 59 9 75 10
17 0 74 22 129 48 54 26 99 46 100 45 1 -2 10 -15 19 -30 10 -16 15 -28 12
-28 -4 0 3 -13 14 -29 12 -16 21 -33 21 -39 0 -21 32 -72 46 -72 19 0 79 -49
86 -71 2 -6 15 -13 28 -14 14 -1 25 -3 25 -5 0 -1 23 -3 50 -4 81 -4 187 41
173 74 -2 3 5 16 14 29 15 21 15 28 3 57 -7 18 -11 35 -7 38 3 3 0 6 -6 6 -7
0 -12 9 -12 20 0 11 -4 20 -8 20 -9 0 -45 95 -45 117 0 7 -3 13 -7 13 -14 0
-31 53 -21 63 13 13 54 15 63 2 5 -6 8 -2 8 9 0 15 3 16 15 6 9 -7 15 -8 15
-2 0 6 11 9 25 8 13 -2 22 1 19 5 -3 5 0 9 5 9 6 0 11 -6 11 -12 0 -10 2 -10
9 0 4 7 19 15 32 17 13 2 35 7 49 10 14 4 37 8 52 8 15 1 24 5 22 9 -3 4 1 8
8 9 83 6 138 18 138 30 0 6 -8 5 -21 -2 -17 -9 -20 -8 -14 2 6 9 3 11 -9 6
-10 -4 -29 -10 -42 -13 -20 -5 -23 -3 -18 10 4 9 8 15 11 13 2 -3 19 -1 38 3
20 5 33 4 29 -1 -8 -13 10 -11 25 4 11 10 12 9 6 -2 -6 -11 -4 -13 11 -7 10 4
15 4 11 0 -4 -4 -2 -13 4 -21 8 -8 8 -13 1 -13 -6 0 -12 3 -15 8 -2 4 -2 1 0
-6 1 -7 -4 -29 -12 -49 -8 -19 -15 -44 -15 -54 0 -11 -4 -19 -9 -19 -5 0 -14
-13 -20 -30 -5 -16 -12 -30 -14 -30 -6 0 -2 34 7 48 4 7 2 12 -4 12 -6 0 -18
-17 -26 -37 -8 -21 -31 -74 -50 -118 -19 -44 -35 -89 -37 -100 -1 -11 -5 -24
-8 -30 -4 -5 -9 -23 -13 -40 -5 -25 -4 -27 6 -15 7 8 24 17 38 19 13 1 31 12
38 22 7 10 20 19 28 19 8 0 14 5 14 10 0 6 8 10 18 10 17 0 30 8 79 50 7 5 14
6 17 1 3 -5 -1 -11 -9 -15 -8 -3 -15 -13 -15 -23 1 -17 1 -17 11 0 5 9 15 17
22 17 7 0 6 -4 -3 -10 -8 -5 -11 -10 -7 -10 4 0 35 23 68 50 33 28 64 50 70
50 5 0 9 6 10 13 0 15 100 92 115 89 6 -1 45 32 87 73 41 41 80 75 87 75 6 0
9 4 6 9 -12 18 21 28 79 25 33 -2 68 -4 78 -5 9 0 17 -6 17 -12 0 -7 4 -6 10
3 5 8 10 10 10 5 0 -6 10 -12 23 -12 12 -1 29 -3 37 -6 8 -2 32 -7 53 -12 21
-4 41 -13 43 -20 3 -7 31 -20 62 -30 31 -9 82 -25 112 -35 57 -20 136 -31 145
-22 3 3 13 7 22 8 60 9 92 48 95 115 2 73 -30 125 -166 263 -64 65 -100 95
-108 89 -7 -4 -22 -8 -33 -9 -11 0 -52 -8 -91 -17 -39 -9 -84 -17 -100 -17
-56 0 -124 6 -130 13 -4 4 -12 3 -18 -1 -10 -6 -66 -12 -66 -7 0 1 9 28 20 61
23 66 27 153 10 199 -6 17 -12 32 -12 35 -1 7 -80 124 -88 130 -3 3 -16 20
-29 37 -24 36 -82 68 -105 60 -8 -3 -20 1 -27 9 -6 8 -14 12 -16 10 -3 -3 -15
-1 -27 3 -15 5 -27 1 -43 -14z m-153 -635 c0 -4 -16 -8 -35 -7 -37 1 -47 13
-17 19 22 5 52 -2 52 -12z m-224 -182 c4 -7 3 -8 -4 -4 -7 4 -12 3 -12 -2 0
-5 -7 -9 -15 -9 -21 0 -19 15 3 20 9 3 18 5 19 6 1 0 5 -4 9 -11z"/>
<path d="M2468 2527 c-21 -5 -38 -13 -38 -18 0 -5 -5 -9 -10 -9 -13 0 -60 -49
-60 -62 0 -5 -4 -7 -8 -4 -9 5 -47 -33 -47 -47 0 -4 -6 -12 -14 -16 -11 -7
-10 -10 6 -15 10 -3 20 -15 21 -26 1 -11 2 -27 3 -36 1 -8 15 -24 30 -35 27
-19 109 -52 109 -44 0 2 18 -4 41 -14 29 -14 50 -16 75 -11 30 7 36 5 53 -19
22 -32 38 -83 41 -136 5 -89 6 -171 1 -180 -5 -10 -10 -95 -14 -277 -2 -90 1
-118 10 -118 7 0 12 3 12 8 -4 24 2 62 10 62 7 0 7 -99 -1 -187 -1 -6 -9 -11
-19 -10 -10 1 -15 5 -12 10 3 5 -3 6 -14 3 -11 -4 -33 -1 -49 5 -16 7 -34 13
-40 14 -5 2 -30 12 -54 24 -24 11 -49 21 -54 21 -6 0 -41 20 -77 43 -64 43
-127 76 -180 96 -22 8 -30 6 -47 -12 -24 -26 -28 -43 -18 -79 5 -15 9 -40 10
-56 2 -30 26 -59 141 -176 104 -106 249 -206 298 -206 33 0 38 -25 13 -73 -13
-26 -26 -43 -30 -40 -4 4 -4 0 0 -10 3 -9 1 -17 -5 -17 -6 0 -8 -6 -5 -13 2
-7 -4 -21 -15 -31 -21 -19 -86 -32 -75 -15 4 7 -6 8 -30 4 -24 -5 -56 0 -102
14 -36 12 -68 20 -71 17 -10 -10 24 -46 66 -69 l46 -25 -3 -63 c-2 -57 0 -65
23 -83 14 -12 26 -32 27 -46 2 -14 11 -32 21 -41 9 -9 17 -19 17 -22 0 -15 70
-77 93 -82 35 -9 117 -12 117 -4 0 3 12 5 28 4 57 -4 114 39 125 94 3 14 17
43 31 64 14 20 23 37 19 37 -3 0 0 7 7 15 7 8 9 15 4 15 -4 0 -3 5 4 12 7 7
12 20 12 29 0 10 3 19 8 21 17 7 47 84 48 124 1 23 6 48 10 56 5 7 9 20 11 28
5 33 27 106 35 117 5 7 5 14 -2 18 -8 5 -5 13 9 26 25 24 27 33 5 25 -13 -5
-14 -3 -6 6 10 13 12 18 12 38 0 5 8 7 18 4 15 -5 15 -4 -1 6 -15 10 -17 19
-12 53 4 23 12 47 18 52 16 13 18 46 3 39 -6 -3 -2 2 9 12 20 16 20 16 -2 11
-16 -4 -23 -1 -23 10 0 9 6 13 15 9 8 -3 15 -1 15 4 0 6 -7 10 -15 10 -25 0
-23 67 3 90 9 8 18 24 19 35 2 11 5 32 7 48 2 15 0 29 -4 32 -4 2 -7 -6 -7
-18 1 -32 -13 -86 -24 -93 -6 -3 -8 6 -5 23 2 15 5 28 6 28 1 0 3 19 5 43 1
28 8 48 21 57 16 13 17 14 1 9 -14 -5 -16 -3 -9 17 5 13 15 25 23 28 12 4 12
2 0 -12 -7 -10 -9 -17 -3 -17 17 0 23 30 7 36 -13 5 -13 8 0 21 8 8 15 25 15
39 0 13 4 24 8 24 19 0 59 157 68 265 3 44 9 106 13 138 6 45 5 60 -6 64 -7 3
-13 15 -13 27 0 12 -9 32 -21 44 -11 13 -22 32 -24 43 -5 27 -34 49 -60 47
-33 -3 -63 12 -84 41 -11 16 -19 30 -17 32 2 2 -2 10 -10 17 -8 7 -14 10 -14
7 0 -4 -7 0 -15 9 -9 8 -14 21 -13 28 4 19 -61 17 -99 -3 -25 -14 -39 -15 -75
-7 -23 5 -51 13 -60 19 -13 6 -16 5 -12 -4 7 -18 -83 -20 -111 -3 -33 21 -48
23 -87 13z m242 -875 c-1 -31 -3 -68 -4 -82 -1 -14 -5 -23 -11 -20 -10 5 -10
60 2 120 3 19 5 40 4 45 -2 6 1 7 5 2 4 -4 6 -33 4 -65z m125 -132 c-3 -5 -12
-10 -18 -10 -7 0 -6 4 3 10 19 12 23 12 15 0z m-3 -55 c-2 -19 -7 -35 -11 -35
-4 0 -7 10 -5 23 1 12 3 28 3 35 1 6 5 12 9 12 4 0 6 -16 4 -35z m-97 -81 c-2
-21 -4 -47 -4 -56 -1 -10 -5 -18 -9 -18 -4 0 -7 28 -6 63 2 82 3 85 14 66 5
-9 7 -34 5 -55z m91 -5 c1 -16 -3 -32 -7 -35 -5 -3 -9 14 -9 37 0 47 14 45 16
-2z m-10 -65 c-3 -9 -6 -18 -6 -20 0 -2 -5 -4 -11 -4 -8 0 -9 4 0 13 6 8 8 17
4 20 -3 4 -1 7 6 7 8 0 11 -6 7 -16z m213 -11 c9 -18 9 -22 -2 -18 -7 3 -13
15 -14 26 -2 24 0 23 16 -8z m-379 -332 c0 -6 -4 -13 -10 -16 -5 -3 -10 1 -10
9 0 9 5 16 10 16 6 0 10 -4 10 -9z m-36 -83 c-11 -20 -19 -28 -22 -19 -2 7 0
16 5 20 6 3 14 17 18 31 5 14 10 20 12 13 2 -6 -4 -27 -13 -45z"/>
<path d="M1486 2263 c-3 -3 -29 -7 -58 -10 -33 -3 -72 -15 -103 -33 -41 -23
-123 -53 -179 -64 -52 -12 -69 -20 -53 -25 16 -6 16 -8 -2 -26 -35 -35 -46
-42 -116 -74 -60 -28 -108 -34 -103 -13 6 22 -16 71 -33 75 -10 3 -17 1 -13
-4 3 -5 -8 -35 -25 -66 -36 -71 -33 -59 -77 -273 -14 -69 -32 -132 -40 -141
-8 -9 -11 -18 -8 -22 3 -3 3 -11 -2 -18 -4 -7 -8 -29 -9 -48 -2 -20 -4 -40 -6
-46 -2 -5 5 -25 14 -42 10 -18 17 -35 17 -38 -2 -16 47 -105 57 -105 7 0 13
-6 13 -12 0 -19 107 -87 136 -87 11 -1 36 -2 58 -4 34 -4 43 0 82 39 24 23 45
48 45 53 1 6 3 16 4 21 1 6 3 17 4 25 1 12 16 15 81 13 44 -2 80 -6 80 -11 0
-4 12 -13 26 -19 15 -7 46 -31 70 -54 27 -26 55 -43 76 -47 18 -2 44 -8 58
-12 75 -21 152 -11 195 27 19 16 21 25 15 54 -9 39 -36 74 -56 74 -7 0 -17 6
-21 13 -9 13 -59 45 -84 54 -15 4 -15 8 -3 31 8 15 11 34 9 43 -3 10 1 19 10
23 9 3 13 10 10 16 -3 5 -1 10 5 10 6 0 8 5 5 10 -3 6 7 29 23 53 17 23 33 59
37 80 3 21 10 35 14 33 4 -3 8 9 9 27 2 47 17 120 27 138 4 6 20 9 35 7 16 -1
36 5 47 14 10 10 35 24 54 32 55 23 60 35 46 108 -7 33 -61 101 -71 88 -2 -3
-14 7 -26 23 -12 15 -26 25 -31 22 -5 -4 -50 14 -101 38 -94 45 -133 59 -142
50z m-208 -288 c49 -9 96 -96 116 -217 7 -37 -2 -43 -31 -25 -6 4 -49 10 -95
13 -46 3 -88 10 -94 15 -6 5 -13 6 -16 3 -3 -3 -23 3 -44 12 -57 25 -105 24
-130 -3 -49 -53 -84 -15 -99 110 -4 32 -1 39 18 47 12 5 47 20 79 33 49 20 69
23 160 20 56 -1 118 -5 136 -8z m-86 -360 c18 -16 32 -32 31 -37 -2 -4 0 -8 5
-9 4 0 16 -3 27 -5 37 -8 70 -13 98 -13 22 -1 28 -5 25 -18 -2 -12 -11 -17
-23 -14 -45 8 -91 8 -100 0 -6 -4 -23 -10 -38 -13 -45 -8 -71 -18 -99 -38 -28
-20 -82 -22 -84 -3 -1 12 -20 57 -45 106 -36 70 -28 76 98 73 63 -1 76 -5 105
-29z m264 -100 c13 -13 13 -15 1 -15 -8 0 -17 7 -21 15 -3 8 -3 15 0 15 3 0
12 -7 20 -15z m-8 -61 l-3 -29 -18 26 c-21 32 -13 70 10 46 8 -8 13 -27 11
-43z m29 -16 c-15 -9 -19 -4 -11 16 5 14 9 15 15 5 5 -8 3 -17 -4 -21z"/>
<path d="M1975 2205 c1 -31 -2 -58 -7 -61 -4 -3 -5 -10 -2 -16 20 -32 19 -353
-2 -389 -2 -3 -6 -37 -10 -75 -9 -98 -12 -119 -14 -119 -1 0 -3 -18 -6 -40 -2
-22 -9 -52 -14 -67 -5 -18 -5 -30 1 -34 6 -3 5 -12 -3 -22 -11 -13 -11 -14 1
-11 14 5 43 80 43 111 -1 9 6 22 14 29 14 11 20 -1 7 -15 -13 -12 -10 -46 4
-46 8 0 11 5 8 10 -3 6 -3 16 2 23 12 19 11 30 -5 57 -13 21 -13 23 -1 13 10
-8 20 -9 29 -3 12 8 12 10 1 10 -10 0 -11 4 -3 13 6 7 16 33 22 59 7 26 20 53
29 60 15 12 15 11 1 -6 -12 -15 -12 -18 -1 -15 13 5 55 119 43 119 -3 0 -1 5
6 12 7 7 12 20 12 30 0 33 28 31 103 -7 48 -23 78 -45 86 -61 9 -21 39 -41 64
-42 4 0 18 -7 31 -15 12 -9 36 -17 52 -20 16 -3 41 -8 56 -12 23 -6 32 -2 55
23 40 42 46 53 60 91 11 31 10 39 -18 92 -17 32 -34 58 -38 57 -3 -1 -28 9
-56 22 -37 17 -67 23 -115 22 -73 0 -157 -9 -180 -19 -26 -11 -40 -12 -40 -2
0 5 -3 8 -7 8 -20 -3 -21 4 -9 44 14 49 4 116 -22 141 -34 32 -80 66 -90 66
-6 0 -17 8 -24 18 -7 9 -25 18 -39 20 -26 3 -27 2 -24 -53z"/>
<path d="M2675 1440 c3 -5 1 -10 -6 -10 -7 0 -9 -3 -6 -7 4 -3 2 -12 -5 -20
-8 -11 -7 -12 6 -7 9 3 16 10 16 14 0 5 3 15 6 24 3 9 1 16 -6 16 -6 0 -8 -4
-5 -10z"/>
<path d="M1961 1407 c-13 -21 -12 -21 5 -5 10 10 16 20 13 22 -3 3 -11 -5 -18
-17z"/>
<path d="M3050 1380 c0 -5 5 -10 11 -10 5 0 7 5 4 10 -3 6 -8 10 -11 10 -2 0
-4 -4 -4 -10z"/>
<path d="M1792 1014 c-7 -8 -10 -14 -7 -14 3 0 -2 -14 -11 -31 -8 -17 -11 -28
-5 -24 11 6 44 76 39 81 -2 1 -9 -4 -16 -12z"/>
<path d="M1719 878 c-34 -55 -92 -114 -121 -123 -9 -3 -20 -16 -24 -28 -4 -11
-13 -27 -20 -35 -20 -19 -18 -27 13 -47 20 -14 25 -14 21 -3 -4 8 3 20 13 27
11 6 17 16 14 21 -3 5 0 7 8 4 16 -6 52 25 41 35 -4 3 -9 0 -11 -6 -3 -7 -9
-13 -13 -13 -12 0 7 35 53 97 20 28 37 55 37 60 0 6 9 22 21 37 11 14 16 26
11 26 -6 0 -25 -24 -43 -52z"/>
<path d="M1686 762 c-3 -5 1 -9 9 -9 8 0 12 4 9 9 -3 4 -7 8 -9 8 -2 0 -6 -4
-9 -8z"/>
</g>
</svg>
