<svg xmlns="http://www.w3.org/2000/svg" viewBox="0 0 400 400" width="400" height="400">
  <path d="M235.3 34.5c-1.3 1.3-4.7 2.6-8.4 3.3-7.1 1.3-7.6 1.6-6 3.6 1.3 1.5 1.7 4.5 2.6 17 .3 3.8.9 8.3 1.3 10 .5 1.7.8 4.2.6 5.6-.1 1.4-.3 4.6-.5 7.2-.1 2.7-.6 4.8-1 4.8s-.9 1-1.2 2.3c-.6 2-1.2 2.2-6.4 2.2-3.2 0-8.3.3-11.3.8-3 .4-8.2.9-11.5 1.2-14.1 1.2-21.3 2.3-23.6 3.6-.9.4-1.9.6-2.2.3s-3.4 0-6.9.7c-5.7 1.2-7.7 1.4-10.8 1-.5-.1-1-.9-1-1.9s-.3-2.2-.7-2.6c-.5-.4-.9-1.2-.9-1.7-.1-.5-.3-1.1-.4-1.4s-.3-1.3-.4-2.3c-.1-.9-.5-2.3-.9-3-.5-.6-.6-1.2-.3-1.2s-.3-2.3-1.4-5c-1.1-2.8-2-5.8-2-6.6 0-2.8-4.2-11.4-5.6-11.4-.8 0-1.3-.3-1.3-.8.5-3.2-3.7-4.2-7.5-1.6-2.1 1.3-4.3 7.1-3.8 9.6.1.5-.1.8-.6.8-.4 0-.7 3.8-.7 8.4-.1 4.7.3 8.2.7 8 .4-.3.8-1.4.8-2.5 0-1 .4-1.9.9-1.9.8 0 .5 14.7-.4 19.5-.2 1.1-.4 2.3-.4 2.7-.1 1.1-3.5 2.7-7.2 3.3-1.9.3-5.7 1.2-8.6 1.9-3.7 1-5.4 1.1-6.2.3-.6-.6-1.1-.7-1.1-.1 0 .5-1.6.9-3.5.8s-3.8.2-4.1.8c-.3.5-1.2.4-2-.3-1.2-1-1.5-1-1.2.2.2.9-.5 1.4-1.9 1.3-1.3-.1-2.3.2-2.3.5 0 .4-.8.7-1.7.7-2.4.2-12.7 3-15 4.2-1 .5-3 .8-4.5.6-1.5-.1-3.1.2-3.4.8-.5.7-.1.9.9.5 1-.3 1.7-.2 1.7.3 0 .6-.6 1-1.4 1s-1.7.7-2 1.5c-.3.9-2 2.1-3.7 2.7-2.6.9-3 1.4-2.4 3.7.4 1.4.7 3 .8 3.6.1.5 1 1.6 2 2.3.9.7 1.7 1.7 1.7 2.2 0 1.1 2.1 3.8 6 7.9 2.5 2.6 8.6 5.9 12.5 6.8 1.1.2 3.1.7 4.5 1 3.7.8 7 .7 12-.2 2.5-.4 5.9-.9 7.5-1 1.7 0 7.4-2.2 12.9-4.8 5.4-2.6 9.9-4.6 10-4.5.1.2 1 1.5 1.9 3 1 1.6 1.5 2.8 1.2 2.8-.4 0 .3 1.3 1.4 2.9 1.2 1.6 2.1 3.3 2.1 3.9 0 2.1 3.2 7.2 4.6 7.2 1.9 0 7.9 4.9 8.6 7.1.2.6 1.5 1.3 2.8 1.4 1.4.1 2.5.3 2.5.5 0 .1 2.3.3 5 .4 8.1.4 18.7-4.1 17.3-7.4-.2-.3.5-1.6 1.4-2.9 1.5-2.1 1.5-2.8.3-5.7-.7-1.8-1.1-3.5-.7-3.8.3-.3 0-.6-.6-.6-.7 0-1.2-.9-1.2-2s-.4-2-.8-2c-.9 0-4.5-9.5-4.5-11.7 0-.7-.3-1.3-.7-1.3-1.4 0-3.1-5.3-2.1-6.3 1.3-1.3 5.4-1.5 6.3-.2.5.6.8.2.8-.9 0-1.5.3-1.6 1.5-.6.9.7 1.5.8 1.5.2s1.1-.9 2.5-.8c1.3.2 2.2-.1 1.9-.5-.3-.5 0-.9.5-.9.6 0 1.1.6 1.1 1.2 0 1 .2 1 .9 0 .4-.7 1.9-1.5 3.2-1.7s3.5-.7 4.9-1c1.4-.4 3.7-.8 5.2-.8 1.5-.1 2.4-.5 2.2-.9-.3-.4.1-.8.8-.9 8.3-.6 13.8-1.8 13.8-3 0-.6-.8-.5-2.1.2-1.7.9-2 .8-1.4-.2q.9-1.35-.9-.6c-1 .4-2.9 1-4.2 1.3-2 .5-2.3.3-1.8-1 .4-.9.8-1.5 1.1-1.3.2.3 1.9.1 3.8-.3 2-.5 3.3-.4 2.9.1-.8 1.3 1 1.1 2.5-.4 1.1-1 1.2-.9.6.2s-.4 1.3 1.1.7c1-.4 1.5-.4 1.1 0s-.2 1.3.4 2.1c.8.8.8 1.3.1 1.3-.6 0-1.2-.3-1.5-.8-.2-.4-.2-.1 0 .6.1.7-.4 2.9-1.2 4.9-.8 1.9-1.5 4.4-1.5 5.4 0 1.1-.4 1.9-.9 1.9s-1.4 1.3-2 3c-.5 1.6-1.2 3-1.4 3-.6 0-.2-3.4.7-4.8.4-.7.2-1.2-.4-1.2s-1.8 1.7-2.6 3.7c-.8 2.1-3.1 7.4-5 11.8s-3.5 8.9-3.7 10c-.1 1.1-.5 2.4-.8 3-.4.5-.9 2.3-1.3 4-.5 2.5-.4 2.7.6 1.5.7-.8 2.4-1.7 3.8-1.9 1.3-.1 3.1-1.2 3.8-2.2s2-1.9 2.8-1.9 1.4-.5 1.4-1c0-.6.8-1 1.8-1 1.7 0 3-.8 7.9-5 .7-.5 1.4-.6 1.7-.1s-.1 1.1-.9 1.5c-.8.3-1.5 1.3-1.5 2.3.1 1.7.1 1.7 1.1 0 .5-.9 1.5-1.7 2.2-1.7s.6.4-.3 1c-.8.5-1.1 1-.7 1s3.5-2.3 6.8-5c3.3-2.8 6.4-5 7-5 .5 0 .9-.6 1-1.3 0-1.5 10-9.2 11.5-8.9.6.1 4.5-3.2 8.7-7.3 4.1-4.1 8-7.5 8.7-7.5.6 0 .9-.4.6-.9-1.2-1.8 2.1-2.8 7.9-2.5 3.3.2 6.8.4 7.8.5.9 0 1.7.6 1.7 1.2 0 .7.4.6 1-.3.5-.8 1-1 1-.5 0 .6 1 1.2 2.3 1.2 1.2.1 2.9.3 3.7.6.8.2 3.2.7 5.3 1.2 2.1.4 4.1 1.3 4.3 2 .3.7 3.1 2 6.2 3 3.1.9 8.2 2.5 11.2 3.5 5.7 2 13.6 3.1 14.5 2.2.3-.3 1.3-.7 2.2-.8 6-.9 9.2-4.8 9.5-11.5.2-7.3-3-12.5-16.6-26.3-6.4-6.5-10-9.5-10.8-8.9-.7.4-2.2.8-3.3.9-1.1 0-5.2.8-9.1 1.7s-8.4 1.7-10 1.7c-5.6 0-12.4-.6-13-1.3-.4-.4-1.2-.3-1.8.1-1 .6-6.6 1.2-6.6.7 0-.1.9-2.8 2-6.1 2.3-6.6 2.7-15.3 1-19.9-.6-1.7-1.2-3.2-1.2-3.5-.1-.7-8-12.4-8.8-13-.3-.3-1.6-2-2.9-3.7-2.4-3.6-8.2-6.8-10.5-6-.8.3-2-.1-2.7-.9-.6-.8-1.4-1.2-1.6-1-.3.3-1.5.1-2.7-.3-1.5-.5-2.7-.1-4.3 1.4M220 98c0 .4-1.6.8-3.5.7-3.7-.1-4.7-1.3-1.7-1.9 2.2-.5 5.2.2 5.2 1.2m-22.4 18.2c.4.7.3.8-.4.4s-1.2-.3-1.2.2-.7.9-1.5.9c-2.1 0-1.9-1.5.3-2 .9-.3 1.8-.5 1.9-.6.1 0 .5.4.9 1.1"/>
  <path d="M246.8 147.3c-2.1.5-3.8 1.3-3.8 1.8s-.5.9-1 .9c-1.3 0-6 4.9-6 6.2 0 .5-.4.7-.8.4-.9-.5-4.7 3.3-4.7 4.7 0 .4-.6 1.2-1.4 1.6-1.1.7-1 1 .6 1.5 1 .3 2 1.5 2.1 2.6s.2 2.7.3 3.6c.1.8 1.5 2.4 3 3.5 2.7 1.9 10.9 5.2 10.9 4.4 0-.2 1.8.4 4.1 1.4 2.9 1.4 5 1.6 7.5 1.1 3-.7 3.6-.5 5.3 1.9 2.2 3.2 3.8 8.3 4.1 13.6.5 8.9.6 17.1.1 18-.5 1-1 9.5-1.4 27.7-.2 9 .1 11.8 1 11.8.7 0 1.2-.3 1.2-.8-.4-2.4.2-6.2 1-6.2.7 0 .7 9.9-.1 18.7-.1.6-.9 1.1-1.9 1s-1.5-.5-1.2-1-.3-.6-1.4-.3c-1.1.4-3.3.1-4.9-.5-1.6-.7-3.4-1.3-4-1.4-.5-.2-3-1.2-5.4-2.4-2.4-1.1-4.9-2.1-5.4-2.1-.6 0-4.1-2-7.7-4.3-6.4-4.3-12.7-7.6-18-9.6-2.2-.8-3-.6-4.7 1.2-2.4 2.6-2.8 4.3-1.8 7.9.5 1.5.9 4 1 5.6.2 3 2.6 5.9 14.1 17.6 10.4 10.6 24.9 20.6 29.8 20.6 3.3 0 3.8 2.5 1.3 7.3-1.3 2.6-2.6 4.3-3 4-.4-.4-.4 0 0 1 .3.9.1 1.7-.5 1.7s-.8.6-.5 1.3c.2.7-.4 2.1-1.5 3.1-2.1 1.9-8.6 3.2-7.5 1.5.4-.7-.6-.8-3-.4-2.4.5-5.6 0-10.2-1.4-3.6-1.2-6.8-2-7.1-1.7-1 1 2.4 4.6 6.6 6.9l4.6 2.5-.3 6.3c-.2 5.7 0 6.5 2.3 8.3 1.4 1.2 2.6 3.2 2.7 4.6.2 1.4 1.1 3.2 2.1 4.1.9.9 1.7 1.9 1.7 2.2 0 1.5 7 7.7 9.3 8.2 3.5.9 11.7 1.2 11.7.4 0-.3 1.2-.5 2.8-.4 5.7.4 11.4-3.9 12.5-9.4.3-1.4 1.7-4.3 3.1-6.4 1.4-2 2.3-3.7 1.9-3.7-.3 0 0-.7.7-1.5s.9-1.5.4-1.5c-.4 0-.3-.5.4-1.2s1.2-2 1.2-2.9c0-1 .3-1.9.8-2.1 1.7-.7 4.7-8.4 4.8-12.4.1-2.3.6-4.8 1-5.6.5-.7.9-2 1.1-2.8.5-3.3 2.7-10.6 3.5-11.7.5-.7.5-1.4-.2-1.8-.8-.5-.5-1.3.9-2.6 2.5-2.4 2.7-3.3.5-2.5-1.3.5-1.4.3-.6-.6 1-1.3 1.2-1.8 1.2-3.8 0-.5.8-.7 1.8-.4 1.5.5 1.5.4-.1-.6-1.5-1-1.7-1.9-1.2-5.3.4-2.3 1.2-4.7 1.8-5.2 1.6-1.3 1.8-4.6.3-3.9-.6.3-.2-.2.9-1.2 2-1.6 2-1.6-.2-1.1-1.6.4-2.3.1-2.3-1 0-.9.6-1.3 1.5-.9.8.3 1.5.1 1.5-.4 0-.6-.7-1-1.5-1-2.5 0-2.3-6.7.3-9 .9-.8 1.8-2.4 1.9-3.5.2-1.1.5-3.2.7-4.8.2-1.5 0-2.9-.4-3.2-.4-.2-.7.6-.7 1.8.1 3.2-1.3 8.6-2.4 9.3-.6.3-.8-.6-.5-2.3.2-1.5.5-2.8.6-2.8s.3-1.9.5-4.3c.1-2.8.8-4.8 2.1-5.7 1.6-1.3 1.7-1.4.1-.9-1.4.5-1.6.3-.9-1.7.5-1.3 1.5-2.5 2.3-2.8 1.2-.4 1.2-.2 0 1.2-.7 1-.9 1.7-.3 1.7 1.7 0 2.3-3 .7-3.6-1.3-.5-1.3-.8 0-2.1.8-.8 1.5-2.5 1.5-3.9 0-1.3.4-2.4.8-2.4 1.9 0 5.9-15.7 6.8-26.5.3-4.4.9-10.6 1.3-13.8.6-4.5.5-6-.6-6.4-.7-.3-1.3-1.5-1.3-2.7s-.9-3.2-2.1-4.4c-1.1-1.3-2.2-3.2-2.4-4.3-.5-2.7-3.4-4.9-6-4.7-3.3.3-6.3-1.2-8.4-4.1-1.1-1.6-1.9-3-1.7-3.2s-.2-1-1-1.7-1.4-1-1.4-.7c0 .4-.7 0-1.5-.9-.9-.8-1.4-2.1-1.3-2.8.4-1.9-6.1-1.7-9.9.3-2.5 1.4-3.9 1.5-7.5.7-2.3-.5-5.1-1.3-6-1.9-1.3-.6-1.6-.5-1.2.4.7 1.8-8.3 2-11.1.3-3.3-2.1-4.8-2.3-8.7-1.3m24.2 87.5c-.1 3.1-.3 6.8-.4 8.2s-.5 2.3-1.1 2c-1-.5-1-6 .2-12 .3-1.9.5-4 .4-4.5-.2-.6.1-.7.5-.2.4.4.6 3.3.4 6.5m12.5 13.2c-.3.5-1.2 1-1.8 1-.7 0-.6-.4.3-1 1.9-1.2 2.3-1.2 1.5 0m-.3 5.5c-.2 1.9-.7 3.5-1.1 3.5s-.7-1-.5-2.3c.1-1.2.3-2.8.3-3.5.1-.6.5-1.2.9-1.2s.6 1.6.4 3.5m-9.7 8.1c-.2 2.1-.4 4.7-.4 5.6-.1 1-.5 1.8-.9 1.8s-.7-2.8-.6-6.3c.2-8.2.3-8.5 1.4-6.6.5.9.7 3.4.5 5.5m9.1.5c.1 1.6-.3 3.2-.7 3.5-.5.3-.9-1.4-.9-3.7 0-4.7 1.4-4.5 1.6.2m-1 6.5c-.3.9-.6 1.8-.6 2s-.5.4-1.1.4c-.8 0-.9-.4 0-1.3.6-.8.8-1.7.4-2-.3-.4-.1-.7.6-.7.8 0 1.1.6.7 1.6m21.3 1.1c.9 1.8.9 2.2-.2 1.8-.7-.3-1.3-1.5-1.4-2.6-.2-2.4 0-2.3 1.6.8M265 302.9c0 .6-.4 1.3-1 1.6-.5.3-1-.1-1-.9 0-.9.5-1.6 1-1.6.6 0 1 .4 1 .9m-3.6 8.3c-1.1 2-1.9 2.8-2.2 1.9-.2-.7 0-1.6.5-2 .6-.3 1.4-1.7 1.8-3.1.5-1.4 1-2 1.2-1.3.2.6-.4 2.7-1.3 4.5M148.6 173.7c-.3.3-2.9.7-5.8 1-3.3.3-7.2 1.5-10.3 3.3-4.1 2.3-12.3 5.3-17.9 6.4-5.2 1.2-6.9 2-5.3 2.5 1.6.6 1.6.8-.2 2.6-3.5 3.5-4.6 4.2-11.6 7.4-6 2.8-10.8 3.4-10.3 1.3.6-2.2-1.6-7.1-3.3-7.5-1-.3-1.7-.1-1.3.4.3.5-.8 3.5-2.5 6.6-3.6 7.1-3.3 5.9-7.7 27.3-1.4 6.9-3.2 13.2-4 14.1s-1.1 1.8-.8 2.2c.3.3.3 1.1-.2 1.8-.4.7-.8 2.9-.9 4.8-.2 2-.4 4-.6 4.6-.2.5.5 2.5 1.4 4.2 1 1.8 1.7 3.5 1.7 3.8-.2 1.6 4.7 10.5 5.7 10.5.7 0 1.3.6 1.3 1.2 0 1.9 10.7 8.7 13.6 8.7 1.1.1 3.6.2 5.8.4 3.4.4 4.3 0 8.2-3.9 2.4-2.3 4.5-4.8 4.5-5.3.1-.6.3-1.6.4-2.1.1-.6.3-1.7.4-2.5.1-1.2 1.6-1.5 8.1-1.3 4.4.2 8 .6 8 1.1 0 .4 1.2 1.3 2.6 1.9 1.5.7 4.6 3.1 7 5.4 2.7 2.6 5.5 4.3 7.6 4.7 1.8.2 4.4.8 5.8 1.2 7.5 2.1 15.2 1.1 19.5-2.7 1.9-1.6 2.1-2.5 1.5-5.4-.9-3.9-3.6-7.4-5.6-7.4-.7 0-1.7-.6-2.1-1.3-.9-1.3-5.9-4.5-8.4-5.4-1.5-.4-1.5-.8-.3-3.1.8-1.5 1.1-3.4.9-4.3-.3-1 .1-1.9 1-2.3.9-.3 1.3-1 1-1.6-.3-.5-.1-1 .5-1s.8-.5.5-1c-.3-.6.7-2.9 2.3-5.3 1.7-2.3 3.3-5.9 3.7-8 .3-2.1 1-3.5 1.4-3.3.4.3.8-.9.9-2.7.2-4.7 1.7-12 2.7-13.8.4-.6 2-.9 3.5-.7 1.6.1 3.6-.5 4.7-1.4 1-1 3.5-2.4 5.4-3.2 5.5-2.3 6-3.5 4.6-10.8-.7-3.3-6.1-10.1-7.1-8.8-.2.3-1.4-.7-2.6-2.3-1.2-1.5-2.6-2.5-3.1-2.2-.5.4-5-1.4-10.1-3.8-9.4-4.5-13.3-5.9-14.2-5m-20.8 28.8c4.9.9 9.6 9.6 11.6 21.7.7 3.7-.2 4.3-3.1 2.5-.6-.4-4.9-1-9.5-1.3s-8.8-1-9.4-1.5-1.3-.6-1.6-.3-2.3-.3-4.4-1.2c-5.7-2.5-10.5-2.4-13 .3-4.9 5.3-8.4 1.5-9.9-11-.4-3.2-.1-3.9 1.8-4.7 1.2-.5 4.7-2 7.9-3.3 4.9-2 6.9-2.3 16-2 5.6.1 11.8.5 13.6.8m-8.6 36c1.8 1.6 3.2 3.2 3.1 3.7-.2.4 0 .8.5.9.4 0 1.6.3 2.7.5 3.7.8 7 1.3 9.8 1.3 2.2.1 2.8.5 2.5 1.8-.2 1.2-1.1 1.7-2.3 1.4-4.5-.8-9.1-.8-10 0-.6.4-2.3 1-3.8 1.3-4.5.8-7.1 1.8-9.9 3.8s-8.2 2.2-8.4.3c-.1-1.2-2-5.7-4.5-10.6-3.6-7-2.8-7.6 9.8-7.3 6.3.1 7.6.5 10.5 2.9m26.4 10c1.3 1.3 1.3 1.5.1 1.5-.8 0-1.7-.7-2.1-1.5-.3-.8-.3-1.5 0-1.5s1.2.7 2 1.5m-.8 6.1-.3 2.9-1.8-2.6c-2.1-3.2-1.3-7 1-4.6.8.8 1.3 2.7 1.1 4.3m2.9 1.6c-1.5.9-1.9.4-1.1-1.6.5-1.4.9-1.5 1.5-.5.5.8.3 1.7-.4 2.1"/>
  <path d="M197.5 179.5c.1 3.1-.2 5.8-.7 6.1-.4.3-.5 1-.2 1.6 2 3.2 1.9 35.3-.2 38.9-.2.3-.6 3.7-1 7.5-.9 9.8-1.2 11.9-1.4 11.9-.1 0-.3 1.8-.6 4-.2 2.2-.9 5.2-1.4 6.7-.5 1.8-.5 3 .1 3.4.6.3.5 1.2-.3 2.2-1.1 1.3-1.1 1.4.1 1.1 1.4-.5 4.3-8 4.3-11.1-.1-.9.6-2.2 1.4-2.9 1.4-1.1 2 .1.7 1.5-1.3 1.2-1 4.6.4 4.6.8 0 1.1-.5.8-1-.3-.6-.3-1.6.2-2.3 1.2-1.9 1.1-3-.5-5.7-1.3-2.1-1.3-2.3-.1-1.3 1 .8 2 .9 2.9.3 1.2-.8 1.2-1 .1-1-1 0-1.1-.4-.3-1.3.6-.7 1.6-3.3 2.2-5.9.7-2.6 2-5.3 2.9-6 1.5-1.2 1.5-1.1.1.6-1.2 1.5-1.2 1.8-.1 1.5 1.3-.5 5.5-11.9 4.3-11.9-.3 0-.1-.5.6-1.2s1.2-2 1.2-3c0-3.3 2.8-3.1 10.3.7 4.8 2.3 7.8 4.5 8.6 6.1.9 2.1 3.9 4.1 6.4 4.2.4 0 1.8.7 3.1 1.5 1.2.9 3.6 1.7 5.2 2s4.1.8 5.6 1.2c2.3.6 3.2.2 5.5-2.3 4-4.2 4.6-5.3 6-9.1 1.1-3.1 1-3.9-1.8-9.2-1.7-3.2-3.4-5.8-3.8-5.7-.3.1-2.8-.9-5.6-2.2-3.7-1.7-6.7-2.3-11.5-2.2-7.3 0-15.7.9-18 1.9-2.6 1.1-4 1.2-4 .2 0-.5-.3-.8-.7-.8-2 .3-2.1-.4-.9-4.4 1.4-4.9.4-11.6-2.2-14.1-3.4-3.2-8-6.6-9-6.6-.6 0-1.7-.8-2.4-1.8-.7-.9-2.5-1.8-3.9-2-2.6-.3-2.7-.2-2.4 5.3m70 76.5c.3.5.1 1-.6 1s-.9.3-.6.7c.4.3.2 1.2-.5 2-.8 1.1-.7 1.2.6.7.9-.3 1.6-1 1.6-1.4 0-.5.3-1.5.6-2.4s.1-1.6-.6-1.6c-.6 0-.8.4-.5 1"/>
  <path d="M196.1 259.3c-1.3 2.1-1.2 2.1.5.5 1-1 1.6-2 1.3-2.2-.3-.3-1.1.5-1.8 1.7M305 262c0 .5.5 1 1.1 1 .5 0 .7-.5.4-1-.3-.6-.8-1-1.1-1-.2 0-.4.4-.4 1m-125.8 36.6c-.7.8-1 1.4-.7 1.4s-.2 1.4-1.1 3.1c-.8 1.7-1.1 2.8-.5 2.4 1.1-.6 4.4-7.6 3.9-8.1-.2-.1-.9.4-1.6 1.2m-7.3 13.6c-3.4 5.5-9.2 11.4-12.1 12.3-.9.3-2 1.6-2.4 2.8-.4 1.1-1.3 2.7-2 3.5-2 1.9-1.8 2.7 1.3 4.7 2 1.4 2.5 1.4 2.1.3-.4-.8.3-2 1.3-2.7 1.1-.6 1.7-1.6 1.4-2.1s0-.7.8-.4c1.6.6 5.2-2.5 4.1-3.5-.4-.3-.9 0-1.1.6-.3.7-.9 1.3-1.3 1.3-1.2 0 .7-3.5 5.3-9.7 2-2.8 3.7-5.5 3.7-6 0-.6.9-2.2 2.1-3.7 1.1-1.4 1.6-2.6 1.1-2.6-.6 0-2.5 2.4-4.3 5.2"/>
  <path d="M168.6 323.8c-.3.5.1.9.9.9s1.2-.4.9-.9c-.3-.4-.7-.8-.9-.8s-.6.4-.9.8"/>
</svg>